<svg width="512" height="512" viewBox="0 0 512 512" fill="none" xmlns="http://www.w3.org/2000/svg">
<g clip-path="url(#clip0_1_5)">
<g filter="url(#filter0_d_1_5)">
<path d="M416 208C416 253.9 401.1 296.3 376 330.7L502.6 457.4C515.1 469.9 515.1 490.2 502.6 502.7C490.1 515.2 469.8 515.2 457.3 502.7L330.7 376C296.3 401.2 253.9 416 208 416C93.1 416 0 322.9 0 208C0 93.1 93.1 0 208 0C322.9 0 416 93.1 416 208ZM208 352C287.5 352 352 287.5 352 208C352 128.5 287.5 64 208 64C128.5 64 64 128.5 64 208C64 287.5 128.5 352 208 352Z" fill="white"/>
</g>
</g>
<defs>
<filter id="filter0_d_1_5" x="-4" y="0" width="519.975" height="520.075" filterUnits="userSpaceOnUse" color-interpolation-filters="sRGB">
<feFlood flood-opacity="0" result="BackgroundImageFix"/>
<feColorMatrix in="SourceAlpha" type="matrix" values="0 0 0 0 0 0 0 0 0 0 0 0 0 0 0 0 0 0 127 0" result="hardAlpha"/>
<feOffset dy="4"/>
<feGaussianBlur stdDeviation="2"/>
<feComposite in2="hardAlpha" operator="out"/>
<feColorMatrix type="matrix" values="0 0 0 0 0 0 0 0 0 0 0 0 0 0 0 0 0 0 0.25 0"/>
<feBlend mode="normal" in2="BackgroundImageFix" result="effect1_dropShadow_1_5"/>
<feBlend mode="normal" in="SourceGraphic" in2="effect1_dropShadow_1_5" result="shape"/>
</filter>
<clipPath id="clip0_1_5">
<rect width="512" height="512" fill="white"/>
</clipPath>
</defs>
</svg>
